<svg id="visual" viewBox="0 0 900 300" width="900" height="300" xmlns="http://www.w3.org/2000/svg" xmlns:xlink="http://www.w3.org/1999/xlink" version="1.1"><rect x="0" y="0" width="900" height="300" fill="#000000"></rect><path d="M0 137L8.3 129.3C16.7 121.7 33.3 106.3 50 98.3C66.7 90.3 83.3 89.7 100 90.8C116.7 92 133.3 95 150 98.2C166.7 101.3 183.3 104.7 200 102.2C216.7 99.7 233.3 91.3 250 86.2C266.7 81 283.3 79 300 77.7C316.7 76.3 333.3 75.7 350 88.2C366.7 100.7 383.3 126.3 400 128.5C416.7 130.7 433.3 109.3 450 100.8C466.7 92.3 483.3 96.7 500 102.8C516.7 109 533.3 117 550 118.5C566.7 120 583.3 115 600 107C616.7 99 633.3 88 650 96C666.7 104 683.3 131 700 133.8C716.7 136.7 733.3 115.3 750 111.3C766.7 107.3 783.3 120.7 800 127C816.7 133.3 833.3 132.7 850 130.2C866.7 127.7 883.3 123.3 891.7 121.2L900 119L900 0L891.7 0C883.3 0 866.7 0 850 0C833.3 0 816.7 0 800 0C783.3 0 766.7 0 750 0C733.3 0 716.7 0 700 0C683.3 0 666.7 0 650 0C633.3 0 616.7 0 600 0C583.3 0 566.7 0 550 0C533.3 0 516.7 0 500 0C483.3 0 466.7 0 450 0C433.3 0 416.7 0 400 0C383.3 0 366.7 0 350 0C333.3 0 316.7 0 300 0C283.3 0 266.7 0 250 0C233.3 0 216.7 0 200 0C183.3 0 166.7 0 150 0C133.3 0 116.7 0 100 0C83.3 0 66.7 0 50 0C33.3 0 16.7 0 8.3 0L0 0Z" fill="#000000"></path><path d="M0 65L8.3 74.2C16.7 83.3 33.3 101.7 50 101.3C66.7 101 83.3 82 100 72.5C116.7 63 133.3 63 150 68.3C166.7 73.7 183.3 84.3 200 85.5C216.7 86.7 233.3 78.3 250 74.2C266.7 70 283.3 70 300 75.5C316.7 81 333.3 92 350 89.5C366.7 87 383.3 71 400 65C416.7 59 433.3 63 450 73C466.7 83 483.3 99 500 102.5C516.7 106 533.3 97 550 93.3C566.7 89.7 583.3 91.3 600 87.5C616.7 83.7 633.3 74.3 650 80.2C666.7 86 683.3 107 700 111.7C716.7 116.3 733.3 104.7 750 96.5C766.7 88.3 783.3 83.7 800 84.5C816.7 85.3 833.3 91.7 850 88.8C866.7 86 883.3 74 891.7 68L900 62L900 0L891.7 0C883.3 0 866.7 0 850 0C833.3 0 816.7 0 800 0C783.3 0 766.7 0 750 0C733.3 0 716.7 0 700 0C683.3 0 666.7 0 650 0C633.3 0 616.7 0 600 0C583.3 0 566.7 0 550 0C533.3 0 516.7 0 500 0C483.3 0 466.7 0 450 0C433.3 0 416.7 0 400 0C383.3 0 366.7 0 350 0C333.3 0 316.7 0 300 0C283.3 0 266.7 0 250 0C233.3 0 216.7 0 200 0C183.3 0 166.7 0 150 0C133.3 0 116.7 0 100 0C83.3 0 66.7 0 50 0C33.3 0 16.7 0 8.3 0L0 0Z" fill="#830000"></path><path d="M0 51L8.3 50.7C16.7 50.3 33.3 49.7 50 48.3C66.7 47 83.3 45 100 45.8C116.7 46.7 133.3 50.3 150 51.2C166.7 52 183.3 50 200 51.3C216.7 52.7 233.3 57.3 250 58.8C266.7 60.3 283.3 58.7 300 63.8C316.7 69 333.3 81 350 86.7C366.7 92.3 383.3 91.7 400 91.7C416.7 91.7 433.3 92.3 450 85.2C466.7 78 483.3 63 500 54.3C516.7 45.7 533.3 43.3 550 49C566.7 54.7 583.3 68.3 600 73C616.7 77.7 633.3 73.3 650 68.3C666.7 63.3 683.3 57.7 700 55.2C716.7 52.7 733.3 53.3 750 52.2C766.7 51 783.3 48 800 53C816.7 58 833.3 71 850 77.7C866.7 84.3 883.3 84.7 891.7 84.8L900 85L900 0L891.7 0C883.3 0 866.7 0 850 0C833.3 0 816.7 0 800 0C783.3 0 766.7 0 750 0C733.3 0 716.7 0 700 0C683.3 0 666.7 0 650 0C633.3 0 616.7 0 600 0C583.3 0 566.7 0 550 0C533.3 0 516.7 0 500 0C483.3 0 466.7 0 450 0C433.3 0 416.7 0 400 0C383.3 0 366.7 0 350 0C333.3 0 316.7 0 300 0C283.3 0 266.7 0 250 0C233.3 0 216.7 0 200 0C183.3 0 166.7 0 150 0C133.3 0 116.7 0 100 0C83.3 0 66.7 0 50 0C33.3 0 16.7 0 8.3 0L0 0Z" fill="#c30001"></path><path d="M0 39L8.3 39.7C16.7 40.3 33.3 41.7 50 43.5C66.7 45.3 83.3 47.7 100 50.3C116.7 53 133.3 56 150 57.2C166.7 58.3 183.3 57.7 200 54.5C216.7 51.3 233.3 45.7 250 44.5C266.7 43.3 283.3 46.7 300 47.2C316.7 47.7 333.3 45.3 350 40.8C366.7 36.3 383.3 29.7 400 32.2C416.7 34.7 433.3 46.3 450 52C466.7 57.7 483.3 57.3 500 54.8C516.7 52.3 533.3 47.7 550 45.2C566.7 42.7 583.3 42.3 600 45.3C616.7 48.3 633.3 54.7 650 53.8C666.7 53 683.3 45 700 43.2C716.7 41.3 733.3 45.7 750 48.3C766.7 51 783.3 52 800 52.2C816.7 52.3 833.3 51.7 850 47.3C866.7 43 883.3 35 891.7 31L900 27L900 0L891.7 0C883.3 0 866.7 0 850 0C833.3 0 816.7 0 800 0C783.3 0 766.7 0 750 0C733.3 0 716.7 0 700 0C683.3 0 666.7 0 650 0C633.3 0 616.7 0 600 0C583.3 0 566.7 0 550 0C533.3 0 516.7 0 500 0C483.3 0 466.7 0 450 0C433.3 0 416.7 0 400 0C383.3 0 366.7 0 350 0C333.3 0 316.7 0 300 0C283.3 0 266.7 0 250 0C233.3 0 216.7 0 200 0C183.3 0 166.7 0 150 0C133.3 0 116.7 0 100 0C83.3 0 66.7 0 50 0C33.3 0 16.7 0 8.3 0L0 0Z" fill="#ff0000"></path></svg>